<?xml version="1.0" standalone="no"?>
<!DOCTYPE svg PUBLIC "-//W3C//DTD SVG 20010904//EN"
 "http://www.w3.org/TR/2001/REC-SVG-20010904/DTD/svg10.dtd">
<svg version="1.0" xmlns="http://www.w3.org/2000/svg"
 width="2134.000000pt" height="2134.000000pt" viewBox="0 0 2134.000000 2134.000000"
 preserveAspectRatio="xMidYMid meet">
<metadata>
Created by potrace 1.14, written by Peter Selinger 2001-2017
</metadata>
<g transform="translate(0.000000,2134.000000) scale(0.100000,-0.100000)"
fill="#000000" stroke="none">
<path d="M4892 15743 c-27 -82 -791 -2328 -1697 -4993 -906 -2665 -1674 -4923
-1705 -5017 l-59 -173 227 0 227 0 1748 5143 c961 2828 1750 5152 1754 5165
l5 22 -225 0 -225 0 -50 -147z"/>
<path d="M11600 10725 l0 -5165 225 0 225 0 0 5165 0 5165 -225 0 -225 0 0
-5165z"/>
<path d="M18113 12898 c3 -1902 8 -3101 15 -3288 20 -534 33 -832 47 -1076
l13 -242 140 -278 c77 -154 183 -371 237 -484 53 -113 100 -209 104 -213 4 -4
14 -5 22 -2 13 5 12 42 -7 273 -56 679 -88 1292 -115 2212 -7 209 -13 1536
-16 3223 l-5 2867 -220 0 -219 0 4 -2992z"/>
<path d="M6072 14433 c-39 -153 -87 -335 -105 -404 l-34 -126 72 -254 c120
-422 167 -564 726 -2207 297 -871 539 -1585 539 -1588 0 -2 101 -4 225 -4 152
0 225 3 225 11 0 5 -230 686 -512 1512 -281 826 -543 1599 -580 1717 -118 365
-237 791 -399 1418 -42 163 -55 202 -69 202 -14 0 -30 -51 -88 -277z"/>
<path d="M13206 14243 c-17 -4 -18 -12 -13 -66 3 -34 13 -228 23 -432 l17
-370 35 -70 c113 -228 514 -941 815 -1447 273 -458 394 -653 2217 -3561 l1715
-2737 223 0 222 0 -51 83 c-29 45 -759 1209 -1622 2587 -1912 3050 -1895 3023
-2171 3483 -503 838 -828 1428 -1183 2142 -106 215 -197 391 -201 391 -4 1
-15 -1 -26 -3z"/>
<path d="M7550 8807 c0 -1 248 -731 550 -1621 303 -891 550 -1621 550 -1623 0
-2 101 -3 225 -3 174 0 225 3 224 13 0 6 -246 737 -547 1622 l-548 1610 -227
3 c-125 1 -227 1 -227 -1z"/>
</g>
</svg>
